# File produced by Open Asset Import Library (http://www.assimp.sf.net)
# (assimp v3.1.187496374)

mtllib Arrow.obj.mtl

# 13 vertex positions
v  500 2000 1500
v  500 2000 500
v  500 0 1500
v  500 0 500
v  1500 2000 1500
v  1500 0 1500
v  1500 2000 500
v  1500 0 500
v  0 2000 2000
v  1000 3732.05 1000
v  0 2000 0
v  2000 2000 2000
v  2000 2000 0

# 0 UV coordinates

# 9 vertex normals
vn -1 0 0
vn 0 0 1
vn 1 0 0
vn 0 0 -1
vn 0 -1 0
vn -0.866025 0.5 0
vn 0 0.5 0.866025
vn 0.866025 0.5 0
vn 0 0.5 -0.866025

# Mesh '<STL_BINARY>' with 22 faces
g <STL_BINARY>
usemtl DefaultMaterial
f  1//1 2//1 3//1
f  3//1 2//1 4//1
f  5//2 1//2 6//2
f  6//2 1//2 3//2
f  7//3 5//3 8//3
f  8//3 5//3 6//3
f  2//4 7//4 4//4
f  4//4 7//4 8//4
f  8//5 6//5 4//5
f  4//5 6//5 3//5
f  9//6 10//6 11//6
f  12//7 10//7 9//7
f  13//8 10//8 12//8
f  11//9 10//9 13//9
f  7//5 13//5 5//5
f  2//5 11//5 7//5
f  7//5 11//5 13//5
f  5//5 13//5 12//5
f  5//5 12//5 1//5
f  1//5 12//5 9//5
f  1//5 9//5 2//5
f  2//5 9//5 11//5

